<?xml version="1.0" standalone="no"?>
<!DOCTYPE svg PUBLIC "-//W3C//DTD SVG 20010904//EN"
 "http://www.w3.org/TR/2001/REC-SVG-20010904/DTD/svg10.dtd">
<svg version="1.0" xmlns="http://www.w3.org/2000/svg"
 width="374.000000pt" height="374.000000pt" viewBox="0 0 374.000000 374.000000"
 preserveAspectRatio="xMidYMid meet">
<metadata>
Created by potrace 1.14, written by Peter Selinger 2001-2017
</metadata>
<g transform="translate(0.000000,374.000000) scale(0.100000,-0.100000)"
fill="#000000" stroke="none">
<path d="M2644 3726 c-3 -8 1 -52 10 -97 9 -46 14 -84 13 -86 -2 -1 -41 13
-88 33 -110 47 -144 58 -269 88 -174 42 -237 49 -430 49 -206 0 -301 -11 -464
-52 -150 -38 -339 -111 -364 -140 -6 -8 -12 -12 -12 -8 0 17 -132 -61 -292
-172 -95 -67 -304 -282 -386 -398 -40 -56 -72 -105 -72 -109 0 -4 -6 -15 -14
-23 -41 -46 -166 -333 -195 -446 -102 -402 -87 -787 44 -1142 41 -110 144
-318 177 -359 13 -16 36 -49 50 -74 30 -51 180 -222 254 -290 109 -99 132
-117 239 -188 150 -100 264 -154 465 -222 382 -128 841 -114 1230 37 141 55
304 146 444 247 130 94 315 288 413 432 87 129 179 303 219 419 145 413 146
865 2 1263 -56 155 -185 393 -267 494 -6 7 -32 40 -59 73 -66 81 -210 218
-303 287 -63 48 -84 71 -122 137 -48 83 -190 261 -208 261 -5 0 -12 -6 -15
-14z"/>
</g>
</svg>
